<svg xmlns="http://www.w3.org/2000/svg" width="560" height="420" viewBox="0 0 560 420" fill="none">
  <g stroke="#A5D978" stroke-opacity=".22" stroke-width="1">
    <path d="M-30 70c65-70 148-62 205-21 60 44 114 39 163-7 70-66 158-47 227 3"/>
    <path d="M-38 100c71-75 157-69 220-25 63 45 122 41 174-8 73-69 160-54 224-10"/>
    <path d="M-42 134c76-78 165-74 232-28 64 45 126 43 181-9 74-70 160-59 219-21"/>
    <path d="M-30 285c65 70 148 62 205 21 60-44 114-39 163 7 70 66 158 47 227-3"/>
    <path d="M-38 255c71 75 157 69 220 25 63-45 122-41 174 8 73 69 160 54 224 10"/>
    <path d="M-42 221c76 78 165 74 232 28 64-45 126-43 181 9 74 70 160 59 219 21"/>
    <path d="M78-20c-28 74-6 125 44 163 58 43 71 100 41 169-22 51-14 91 25 129"/>
    <path d="M116-25c-30 77-9 132 45 173 61 47 75 107 43 179-23 52-16 94 23 132"/>
    <path d="M444-25c30 77 9 132-45 173-61 47-75 107-43 179 23 52 16 94-23 132"/>
  </g>
</svg>
