<svg xmlns="http://www.w3.org/2000/svg" viewBox="0 0 230 72" role="img" aria-labelledby="title">
  <title id="title">Verdeon</title>
  <g>
    <path fill="#A5D978" d="M30.8 64.7C16.4 58.2 8.2 45.5 10.7 31.8 13.3 17.8 24.8 8.3 35.8 3c4.4 13.7 4.7 26.2-1 37.2-2.7 5.2-4.9 10.9-4 24.5Z"/>
    <path fill="#76C174" d="M31.1 65.1c-1.2-12.4 2.2-23.2 10.1-31.1 7.4-7.4 15.7-10.4 22.2-10.7.4 11.1-2.1 21.3-9.2 28.6-5.7 5.9-13.4 10.2-23.1 13.2Z"/>
    <path fill="none" stroke="#F4F6F2" stroke-width="2.4" stroke-linecap="round" d="M30.8 65.2C29 48.6 29.6 28.9 35.8 3M31.3 64.7c7.4-14.8 17.6-29.1 32.1-41.4"/>
  </g>
  <text x="78" y="47" fill="#F4F6F2" font-family="Arial, sans-serif" font-size="36" font-weight="700" letter-spacing="-1.6">Verdeon</text>
</svg>
